<mxfile host="app.diagrams.net" agent="Mozilla/5.0 (Windows NT 10.0; Win64; x64) AppleWebKit/537.36 (KHTML, like Gecko) Chrome/133.0.0.0 Safari/537.36" version="26.1.0">
  <diagram name="Página-1" id="M6Pzc_C24xo2Enhqxa4n">
    <mxGraphModel dx="1518" dy="665" grid="1" gridSize="10" guides="1" tooltips="1" connect="1" arrows="1" fold="1" page="1" pageScale="1" pageWidth="827" pageHeight="1169" math="0" shadow="0">
      <root>
        <mxCell id="0" />
        <mxCell id="1" parent="0" />
        <mxCell id="fs-aPo8nbTwsByZCqwDc-1" value="" style="ellipse;whiteSpace=wrap;html=1;aspect=fixed;" parent="1" vertex="1">
          <mxGeometry x="80" y="770" width="80" height="80" as="geometry" />
        </mxCell>
        <mxCell id="fs-aPo8nbTwsByZCqwDc-2" value="&lt;code&gt;StatelessWidget&lt;/code&gt;" style="rounded=1;whiteSpace=wrap;html=1;" parent="1" vertex="1">
          <mxGeometry x="40" y="90" width="120" height="60" as="geometry" />
        </mxCell>
        <mxCell id="fs-aPo8nbTwsByZCqwDc-4" value="&lt;meta charset=&quot;utf-8&quot;&gt;&lt;code&gt;BuildContext&lt;/code&gt;" style="rounded=1;whiteSpace=wrap;html=1;" parent="1" vertex="1">
          <mxGeometry x="210" y="290" width="120" height="60" as="geometry" />
        </mxCell>
        <mxCell id="fs-aPo8nbTwsByZCqwDc-5" value="contiene informacion sobre la ubicacion del widget, en el arbol de widgets" style="text;html=1;align=center;verticalAlign=middle;whiteSpace=wrap;rounded=0;" parent="1" vertex="1">
          <mxGeometry x="360" y="290" width="100" height="80" as="geometry" />
        </mxCell>
        <mxCell id="fs-aPo8nbTwsByZCqwDc-6" value="Un &lt;code&gt;StatelessWidget&lt;/code&gt; es un widget que no cambia su estado &lt;br/&gt;durante la ejecución de la aplicación. Es decir, una vez que se &lt;br/&gt;construye, no se puede modificar." style="text;html=1;align=center;verticalAlign=middle;whiteSpace=wrap;rounded=0;" parent="1" vertex="1">
          <mxGeometry x="200" y="30" width="130" height="170" as="geometry" />
        </mxCell>
        <mxCell id="fs-aPo8nbTwsByZCqwDc-7" value="es un widget que asegura que su contenido no se superponga con áreas &lt;br/&gt;inseguras de la pantalla, como la muesca o los bordes redondeados en &lt;br/&gt;algunos dispositivos. Se coloca dentro del &lt;code&gt;body&lt;/code&gt; del &lt;code&gt;Scaffold&lt;/code&gt;" style="text;whiteSpace=wrap;html=1;" parent="1" vertex="1">
          <mxGeometry x="570" y="440" width="195" height="130" as="geometry" />
        </mxCell>
        <mxCell id="fs-aPo8nbTwsByZCqwDc-8" value="&lt;code&gt;Scaffold&lt;/code&gt;" style="rounded=1;whiteSpace=wrap;html=1;" parent="1" vertex="1">
          <mxGeometry x="430" y="440" width="120" height="60" as="geometry" />
        </mxCell>
        <mxCell id="klsQfkMg6LsOkFua_Tui-1" value="&lt;strong&gt;&lt;code&gt;child: Container(&lt;/code&gt;&lt;/strong&gt;" style="rounded=1;whiteSpace=wrap;html=1;" parent="1" vertex="1">
          <mxGeometry x="570" y="660" width="120" height="60" as="geometry" />
        </mxCell>
        <mxCell id="klsQfkMg6LsOkFua_Tui-2" value="&lt;code&gt;Container&lt;/code&gt; es un widget que permite personalizar la &#xa;apariencia y el diseño de su contenido. Aquí se utiliza para definir el &#xa;ancho, alto y relleno (padding) del área de contenido." style="text;whiteSpace=wrap;html=1;" parent="1" vertex="1">
          <mxGeometry x="720" y="660" width="270" height="110" as="geometry" />
        </mxCell>
        <mxCell id="klsQfkMg6LsOkFua_Tui-3" value="&lt;strong&gt;&lt;code&gt;width: double.infinity,&lt;/code&gt;&lt;/strong&gt;: Establece el ancho del contenedor para que ocupe todo el espacio disponible horizontalmente." style="text;whiteSpace=wrap;html=1;" parent="1" vertex="1">
          <mxGeometry x="1010" y="660" width="560" height="50" as="geometry" />
        </mxCell>
        <UserObject label="&lt;strong&gt;&lt;code&gt;height: MediaQuery.of(context).size.height,&lt;/code&gt;&lt;/strong&gt;: Establece la altura del contenedor para que ocupe toda la altura de la pantalla.&lt;div&gt;&lt;br&gt;&lt;/div&gt;&lt;div&gt;&amp;nbsp;&lt;code&gt;MediaQuery&lt;/code&gt; se utiliza para obtener información sobre el tamaño de la pantall&lt;/div&gt;" link="&lt;strong&gt;&lt;code&gt;height: MediaQuery.of(context).size.height,&lt;/code&gt;&lt;/strong&gt;: Establece la altura del contenedor para que ocupe toda la altura de la pantalla. &lt;code&gt;MediaQuery&lt;/code&gt; se utiliza para obtener información sobre el tamaño de la pantall" id="klsQfkMg6LsOkFua_Tui-4">
          <mxCell style="text;whiteSpace=wrap;html=1;" parent="1" vertex="1">
            <mxGeometry x="1010" y="720" width="560" height="70" as="geometry" />
          </mxCell>
        </UserObject>
        <mxCell id="klsQfkMg6LsOkFua_Tui-6" value="&lt;strong&gt;&lt;code&gt;padding: EdgeInsets.symmetric(horizontal: 20, vertical: 30),&lt;/code&gt;&lt;/strong&gt;: Define un relleno simétrico (igual en ambos lados) de 20 píxeles en los lados horizontal y 30 píxeles en los lados vertical." style="text;whiteSpace=wrap;html=1;" parent="1" vertex="1">
          <mxGeometry x="1010" y="820" width="560" height="70" as="geometry" />
        </mxCell>
        <mxCell id="x2Cqz-jIQy0DlJKaDYQf-2" value="&lt;strong style=&quot;text-align: left; color: rgb(64, 64, 64); font-family: Inter, system-ui, -apple-system, BlinkMacSystemFont, &amp;quot;Segoe UI&amp;quot;, Roboto, &amp;quot;Noto Sans&amp;quot;, Ubuntu, Cantarell, &amp;quot;Helvetica Neue&amp;quot;, Oxygen, &amp;quot;Open Sans&amp;quot;, sans-serif; font-size: 16.002px;&quot;&gt;&lt;code style=&quot;font-size: 0.875em; font-weight: var(--ds-font-weight-strong); font-family: var(--ds-font-family-code); background-color: var(--ds-md-inline-code-color,#ececec); border-radius: 4px; padding: 0.15rem 0.3rem;&quot;&gt;child: Column&lt;/code&gt;&lt;/strong&gt;" style="rounded=1;whiteSpace=wrap;html=1;" vertex="1" parent="1">
          <mxGeometry x="1040" y="990" width="120" height="60" as="geometry" />
        </mxCell>
        <UserObject label="&lt;p style=&quot;margin: 0px 0px 4px; font-size: 16.002px; line-height: var(--ds-md-line-height); color: rgb(64, 64, 64); font-family: Inter, system-ui, -apple-system, BlinkMacSystemFont, &amp;quot;Segoe UI&amp;quot;, Roboto, &amp;quot;Noto Sans&amp;quot;, Ubuntu, Cantarell, &amp;quot;Helvetica Neue&amp;quot;, Oxygen, &amp;quot;Open Sans&amp;quot;, sans-serif; font-style: normal; font-variant-ligatures: normal; font-variant-caps: normal; font-weight: 400; letter-spacing: normal; orphans: 2; text-align: left; text-indent: 0px; text-transform: none; widows: 2; word-spacing: 0px; -webkit-text-stroke-width: 0px; white-space: normal; text-decoration-thickness: initial; text-decoration-style: initial; text-decoration-color: initial;&quot;&gt;&lt;code style=&quot;font-size: 0.875em; font-weight: var(--ds-font-weight-strong); font-family: var(--ds-font-family-code); background-color: var(--ds-md-inline-code-color,#ececec); border-radius: 4px; padding: 0.15rem 0.3rem;&quot;&gt;Column&lt;/code&gt;&lt;span&gt;&amp;nbsp;&lt;/span&gt;es un widget que organiza a sus hijos en una columna vertical.&lt;/p&gt;&lt;ul style=&quot;margin-top: 4px; margin-right: ; margin-bottom: 0px; margin-left: ; padding-left: calc(var(--ds-md-zoom)*24px); color: rgb(64, 64, 64); font-family: Inter, system-ui, -apple-system, BlinkMacSystemFont, &amp;quot;Segoe UI&amp;quot;, Roboto, &amp;quot;Noto Sans&amp;quot;, Ubuntu, Cantarell, &amp;quot;Helvetica Neue&amp;quot;, Oxygen, &amp;quot;Open Sans&amp;quot;, sans-serif; font-size: 16.002px; font-style: normal; font-variant-ligatures: normal; font-variant-caps: normal; font-weight: 400; letter-spacing: normal; orphans: 2; text-align: left; text-indent: 0px; text-transform: none; widows: 2; word-spacing: 0px; -webkit-text-stroke-width: 0px; white-space: normal; text-decoration-thickness: initial; text-decoration-style: initial; text-decoration-color: initial;&quot;&gt;&lt;li&gt;&lt;p style=&quot;margin-top: 0px; margin-right: 0px; margin-bottom: 0px !important; margin-left: 0px; font-size: var(--ds-md-font-size); line-height: var(--ds-md-line-height);&quot;&gt;&lt;strong&gt;&lt;code style=&quot;font-size: 0.875em; font-weight: var(--ds-font-weight-strong); font-family: var(--ds-font-family-code); background-color: var(--ds-md-inline-code-color,#ececec); border-radius: 4px; padding: 0.15rem 0.3rem;&quot;&gt;mainAxisAlignment: MainAxisAlignment.center,&lt;/code&gt;&lt;/strong&gt;: Alinea los hijos en el centro del eje principal (verticalmente en este caso).&lt;/p&gt;&lt;/li&gt;&lt;li style=&quot;margin-top: 4px;&quot;&gt;&lt;p style=&quot;margin-top: 0px; margin-right: 0px; margin-bottom: 0px !important; margin-left: 0px; font-size: var(--ds-md-font-size); line-height: var(--ds-md-line-height);&quot;&gt;&lt;strong&gt;&lt;code style=&quot;font-size: 0.875em; font-weight: var(--ds-font-weight-strong); font-family: var(--ds-font-family-code); background-color: var(--ds-md-inline-code-color,#ececec); border-radius: 4px; padding: 0.15rem 0.3rem;&quot;&gt;crossAxisAlignment: CrossAxisAlignment.center,&lt;/code&gt;&lt;/strong&gt;: Alinea los hijos en el centro del eje transversal (horizontalmente en este caso).&lt;/p&gt;&lt;/li&gt;&lt;li style=&quot;margin-top: 4px;&quot;&gt;&lt;p style=&quot;margin-top: 0px; margin-right: 0px; margin-bottom: 0px !important; margin-left: 0px; font-size: var(--ds-md-font-size); line-height: var(--ds-md-line-height);&quot;&gt;&lt;strong&gt;&lt;code style=&quot;font-size: 0.875em; font-weight: var(--ds-font-weight-strong); font-family: var(--ds-font-family-code); background-color: var(--ds-md-inline-code-color,#ececec); border-radius: 4px; padding: 0.15rem 0.3rem;&quot;&gt;children: [&lt;/code&gt;&lt;/strong&gt;: Aquí se define una lista de widgets que serán los hijos de la columna.&lt;/p&gt;&lt;/li&gt;&lt;/ul&gt;" link="&lt;p style=&quot;margin: 0px 0px 4px; font-size: 16.002px; line-height: var(--ds-md-line-height); color: rgb(64, 64, 64); font-family: Inter, system-ui, -apple-system, BlinkMacSystemFont, &amp;quot;Segoe UI&amp;quot;, Roboto, &amp;quot;Noto Sans&amp;quot;, Ubuntu, Cantarell, &amp;quot;Helvetica Neue&amp;quot;, Oxygen, &amp;quot;Open Sans&amp;quot;, sans-serif; font-style: normal; font-variant-ligatures: normal; font-variant-caps: normal; font-weight: 400; letter-spacing: normal; orphans: 2; text-align: left; text-indent: 0px; text-transform: none; widows: 2; word-spacing: 0px; -webkit-text-stroke-width: 0px; white-space: normal; text-decoration-thickness: initial; text-decoration-style: initial; text-decoration-color: initial;&quot;&gt;&lt;code style=&quot;font-size: 0.875em; font-weight: var(--ds-font-weight-strong); font-family: var(--ds-font-family-code); background-color: var(--ds-md-inline-code-color,#ececec); border-radius: 4px; padding: 0.15rem 0.3rem;&quot;&gt;Column&lt;/code&gt;&lt;span&gt;&amp;nbsp;&lt;/span&gt;es un widget que organiza a sus hijos en una columna vertical.&lt;/p&gt;&lt;ul style=&quot;margin-top: 4px; margin-right: ; margin-bottom: 0px; margin-left: ; padding-left: calc(var(--ds-md-zoom)*24px); color: rgb(64, 64, 64); font-family: Inter, system-ui, -apple-system, BlinkMacSystemFont, &amp;quot;Segoe UI&amp;quot;, Roboto, &amp;quot;Noto Sans&amp;quot;, Ubuntu, Cantarell, &amp;quot;Helvetica Neue&amp;quot;, Oxygen, &amp;quot;Open Sans&amp;quot;, sans-serif; font-size: 16.002px; font-style: normal; font-variant-ligatures: normal; font-variant-caps: normal; font-weight: 400; letter-spacing: normal; orphans: 2; text-align: left; text-indent: 0px; text-transform: none; widows: 2; word-spacing: 0px; -webkit-text-stroke-width: 0px; white-space: normal; text-decoration-thickness: initial; text-decoration-style: initial; text-decoration-color: initial;&quot;&gt;&lt;li&gt;&lt;p style=&quot;margin-top: 0px; margin-right: 0px; margin-bottom: 0px !important; margin-left: 0px; font-size: var(--ds-md-font-size); line-height: var(--ds-md-line-height);&quot;&gt;&lt;strong&gt;&lt;code style=&quot;font-size: 0.875em; font-weight: var(--ds-font-weight-strong); font-family: var(--ds-font-family-code); background-color: var(--ds-md-inline-code-color,#ececec); border-radius: 4px; padding: 0.15rem 0.3rem;&quot;&gt;mainAxisAlignment: MainAxisAlignment.center,&lt;/code&gt;&lt;/strong&gt;: Alinea los hijos en el centro del eje principal (verticalmente en este caso).&lt;/p&gt;&lt;/li&gt;&lt;li style=&quot;margin-top: 4px;&quot;&gt;&lt;p style=&quot;margin-top: 0px; margin-right: 0px; margin-bottom: 0px !important; margin-left: 0px; font-size: var(--ds-md-font-size); line-height: var(--ds-md-line-height);&quot;&gt;&lt;strong&gt;&lt;code style=&quot;font-size: 0.875em; font-weight: var(--ds-font-weight-strong); font-family: var(--ds-font-family-code); background-color: var(--ds-md-inline-code-color,#ececec); border-radius: 4px; padding: 0.15rem 0.3rem;&quot;&gt;crossAxisAlignment: CrossAxisAlignment.center,&lt;/code&gt;&lt;/strong&gt;: Alinea los hijos en el centro del eje transversal (horizontalmente en este caso).&lt;/p&gt;&lt;/li&gt;&lt;li style=&quot;margin-top: 4px;&quot;&gt;&lt;p style=&quot;margin-top: 0px; margin-right: 0px; margin-bottom: 0px !important; margin-left: 0px; font-size: var(--ds-md-font-size); line-height: var(--ds-md-line-height);&quot;&gt;&lt;strong&gt;&lt;code style=&quot;font-size: 0.875em; font-weight: var(--ds-font-weight-strong); font-family: var(--ds-font-family-code); background-color: var(--ds-md-inline-code-color,#ececec); border-radius: 4px; padding: 0.15rem 0.3rem;&quot;&gt;children: [&lt;/code&gt;&lt;/strong&gt;: Aquí se define una lista de widgets que serán los hijos de la columna.&lt;/p&gt;&lt;/li&gt;&lt;/ul&gt;" id="x2Cqz-jIQy0DlJKaDYQf-3">
          <mxCell style="text;whiteSpace=wrap;html=1;" vertex="1" parent="1">
            <mxGeometry x="1270" y="990" width="560" height="170" as="geometry" />
          </mxCell>
        </UserObject>
        <mxCell id="x2Cqz-jIQy0DlJKaDYQf-5" value="&lt;h3 style=&quot;font-weight: var(--ds-font-weight-strong); font-size: calc(var(--ds-md-zoom)*16px); line-height: 1.5; margin: calc(var(--ds-md-zoom)*16px)0 calc(var(--ds-md-zoom)*12px)0; color: rgb(64, 64, 64); font-family: Inter, system-ui, -apple-system, BlinkMacSystemFont, &amp;quot;Segoe UI&amp;quot;, Roboto, &amp;quot;Noto Sans&amp;quot;, Ubuntu, Cantarell, &amp;quot;Helvetica Neue&amp;quot;, Oxygen, &amp;quot;Open Sans&amp;quot;, sans-serif; text-align: start;&quot;&gt;Widget&amp;nbsp;&lt;code style=&quot;font-size: 0.875em; font-weight: var(--ds-font-weight-strong); font-family: var(--ds-font-family-code); background-color: var(--ds-md-inline-code-color,#ececec); border-radius: 4px; padding: 0.15rem 0.3rem;&quot;&gt;Text&lt;/code&gt;&lt;/h3&gt;" style="rounded=1;whiteSpace=wrap;html=1;" vertex="1" parent="1">
          <mxGeometry x="1330" y="1220" width="120" height="60" as="geometry" />
        </mxCell>
        <UserObject label="&lt;ul style=&quot;margin: calc(var(--ds-md-zoom)*12px)0; padding-left: calc(var(--ds-md-zoom)*24px); color: rgb(64, 64, 64); font-family: Inter, system-ui, -apple-system, BlinkMacSystemFont, &amp;quot;Segoe UI&amp;quot;, Roboto, &amp;quot;Noto Sans&amp;quot;, Ubuntu, Cantarell, &amp;quot;Helvetica Neue&amp;quot;, Oxygen, &amp;quot;Open Sans&amp;quot;, sans-serif; font-size: 16.002px; font-style: normal; font-variant-ligatures: normal; font-variant-caps: normal; font-weight: 400; letter-spacing: normal; orphans: 2; text-align: start; text-indent: 0px; text-transform: none; widows: 2; word-spacing: 0px; -webkit-text-stroke-width: 0px; white-space: normal; text-decoration-thickness: initial; text-decoration-style: initial; text-decoration-color: initial;&quot;&gt;&lt;li&gt;&lt;p style=&quot;margin: 0px 0px 4px; font-size: var(--ds-md-font-size); line-height: var(--ds-md-line-height);&quot;&gt;&lt;strong&gt;&lt;code style=&quot;font-size: 0.875em; font-weight: var(--ds-font-weight-strong); font-family: var(--ds-font-family-code); background-color: var(--ds-md-inline-code-color,#ececec); border-radius: 4px; padding: 0.15rem 0.3rem;&quot;&gt;Text(&lt;/code&gt;&lt;/strong&gt;:&lt;span&gt;&amp;nbsp;&lt;/span&gt;&lt;code style=&quot;font-size: 0.875em; font-weight: var(--ds-font-weight-strong); font-family: var(--ds-font-family-code); background-color: var(--ds-md-inline-code-color,#ececec); border-radius: 4px; padding: 0.15rem 0.3rem;&quot;&gt;Text&lt;/code&gt;&lt;span&gt;&amp;nbsp;&lt;/span&gt;es un widget que muestra una cadena de texto en la interfaz de usuario.&lt;/p&gt;&lt;ul style=&quot;margin-top: 4px; margin-right: ; margin-bottom: 0px; margin-left: ; padding-left: calc(var(--ds-md-zoom)*24px);&quot;&gt;&lt;li&gt;&lt;p style=&quot;margin-top: 0px; margin-right: 0px; margin-bottom: 0px !important; margin-left: 0px; font-size: var(--ds-md-font-size); line-height: var(--ds-md-line-height);&quot;&gt;&lt;strong&gt;&lt;code style=&quot;font-size: 0.875em; font-weight: var(--ds-font-weight-strong); font-family: var(--ds-font-family-code); background-color: var(--ds-md-inline-code-color,#ececec); border-radius: 4px; padding: 0.15rem 0.3rem;&quot;&gt;&quot;Iniciar Sesión&quot;,&lt;/code&gt;&lt;/strong&gt;: Es el texto que se mostrará.&lt;/p&gt;&lt;/li&gt;&lt;li style=&quot;margin-top: 4px;&quot;&gt;&lt;p style=&quot;margin: 0px 0px 4px; font-size: var(--ds-md-font-size); line-height: var(--ds-md-line-height);&quot;&gt;&lt;strong&gt;&lt;code style=&quot;font-size: 0.875em; font-weight: var(--ds-font-weight-strong); font-family: var(--ds-font-family-code); background-color: var(--ds-md-inline-code-color,#ececec); border-radius: 4px; padding: 0.15rem 0.3rem;&quot;&gt;style: TextStyle(&lt;/code&gt;&lt;/strong&gt;: Define el estilo del texto.&lt;/p&gt;&lt;ul style=&quot;margin-top: 4px; margin-right: ; margin-bottom: 0px; margin-left: ; padding-left: calc(var(--ds-md-zoom)*24px);&quot;&gt;&lt;li&gt;&lt;p style=&quot;margin-top: 0px; margin-right: 0px; margin-bottom: 0px !important; margin-left: 0px; font-size: var(--ds-md-font-size); line-height: var(--ds-md-line-height);&quot;&gt;&lt;strong&gt;&lt;code style=&quot;font-size: 0.875em; font-weight: var(--ds-font-weight-strong); font-family: var(--ds-font-family-code); background-color: var(--ds-md-inline-code-color,#ececec); border-radius: 4px; padding: 0.15rem 0.3rem;&quot;&gt;fontWeight: FontWeight.bold,&lt;/code&gt;&lt;/strong&gt;: Hace que el texto sea negrita.&lt;/p&gt;&lt;/li&gt;&lt;li style=&quot;margin-top: 4px;&quot;&gt;&lt;p style=&quot;margin-top: 0px; margin-right: 0px; margin-bottom: 0px !important; margin-left: 0px; font-size: var(--ds-md-font-size); line-height: var(--ds-md-line-height);&quot;&gt;&lt;strong&gt;&lt;code style=&quot;font-size: 0.875em; font-weight: var(--ds-font-weight-strong); font-family: var(--ds-font-family-code); background-color: var(--ds-md-inline-code-color,#ececec); border-radius: 4px; padding: 0.15rem 0.3rem;&quot;&gt;fontSize: 30,&lt;/code&gt;&lt;/strong&gt;: Establece el tamaño de la fuente a 30 píxeles.&lt;/p&gt;&lt;/li&gt;&lt;/ul&gt;&lt;/li&gt;&lt;/ul&gt;&lt;/li&gt;&lt;/ul&gt;" link="&lt;ul style=&quot;margin: calc(var(--ds-md-zoom)*12px)0; padding-left: calc(var(--ds-md-zoom)*24px); color: rgb(64, 64, 64); font-family: Inter, system-ui, -apple-system, BlinkMacSystemFont, &amp;quot;Segoe UI&amp;quot;, Roboto, &amp;quot;Noto Sans&amp;quot;, Ubuntu, Cantarell, &amp;quot;Helvetica Neue&amp;quot;, Oxygen, &amp;quot;Open Sans&amp;quot;, sans-serif; font-size: 16.002px; font-style: normal; font-variant-ligatures: normal; font-variant-caps: normal; font-weight: 400; letter-spacing: normal; orphans: 2; text-align: start; text-indent: 0px; text-transform: none; widows: 2; word-spacing: 0px; -webkit-text-stroke-width: 0px; white-space: normal; text-decoration-thickness: initial; text-decoration-style: initial; text-decoration-color: initial;&quot;&gt;&lt;li&gt;&lt;p style=&quot;margin: 0px 0px 4px; font-size: var(--ds-md-font-size); line-height: var(--ds-md-line-height);&quot;&gt;&lt;strong&gt;&lt;code style=&quot;font-size: 0.875em; font-weight: var(--ds-font-weight-strong); font-family: var(--ds-font-family-code); background-color: var(--ds-md-inline-code-color,#ececec); border-radius: 4px; padding: 0.15rem 0.3rem;&quot;&gt;Text(&lt;/code&gt;&lt;/strong&gt;:&lt;span&gt;&amp;nbsp;&lt;/span&gt;&lt;code style=&quot;font-size: 0.875em; font-weight: var(--ds-font-weight-strong); font-family: var(--ds-font-family-code); background-color: var(--ds-md-inline-code-color,#ececec); border-radius: 4px; padding: 0.15rem 0.3rem;&quot;&gt;Text&lt;/code&gt;&lt;span&gt;&amp;nbsp;&lt;/span&gt;es un widget que muestra una cadena de texto en la interfaz de usuario.&lt;/p&gt;&lt;ul style=&quot;margin-top: 4px; margin-right: ; margin-bottom: 0px; margin-left: ; padding-left: calc(var(--ds-md-zoom)*24px);&quot;&gt;&lt;li&gt;&lt;p style=&quot;margin-top: 0px; margin-right: 0px; margin-bottom: 0px !important; margin-left: 0px; font-size: var(--ds-md-font-size); line-height: var(--ds-md-line-height);&quot;&gt;&lt;strong&gt;&lt;code style=&quot;font-size: 0.875em; font-weight: var(--ds-font-weight-strong); font-family: var(--ds-font-family-code); background-color: var(--ds-md-inline-code-color,#ececec); border-radius: 4px; padding: 0.15rem 0.3rem;&quot;&gt;&quot;Iniciar Sesión&quot;,&lt;/code&gt;&lt;/strong&gt;: Es el texto que se mostrará.&lt;/p&gt;&lt;/li&gt;&lt;li style=&quot;margin-top: 4px;&quot;&gt;&lt;p style=&quot;margin: 0px 0px 4px; font-size: var(--ds-md-font-size); line-height: var(--ds-md-line-height);&quot;&gt;&lt;strong&gt;&lt;code style=&quot;font-size: 0.875em; font-weight: var(--ds-font-weight-strong); font-family: var(--ds-font-family-code); background-color: var(--ds-md-inline-code-color,#ececec); border-radius: 4px; padding: 0.15rem 0.3rem;&quot;&gt;style: TextStyle(&lt;/code&gt;&lt;/strong&gt;: Define el estilo del texto.&lt;/p&gt;&lt;ul style=&quot;margin-top: 4px; margin-right: ; margin-bottom: 0px; margin-left: ; padding-left: calc(var(--ds-md-zoom)*24px);&quot;&gt;&lt;li&gt;&lt;p style=&quot;margin-top: 0px; margin-right: 0px; margin-bottom: 0px !important; margin-left: 0px; font-size: var(--ds-md-font-size); line-height: var(--ds-md-line-height);&quot;&gt;&lt;strong&gt;&lt;code style=&quot;font-size: 0.875em; font-weight: var(--ds-font-weight-strong); font-family: var(--ds-font-family-code); background-color: var(--ds-md-inline-code-color,#ececec); border-radius: 4px; padding: 0.15rem 0.3rem;&quot;&gt;fontWeight: FontWeight.bold,&lt;/code&gt;&lt;/strong&gt;: Hace que el texto sea negrita.&lt;/p&gt;&lt;/li&gt;&lt;li style=&quot;margin-top: 4px;&quot;&gt;&lt;p style=&quot;margin-top: 0px; margin-right: 0px; margin-bottom: 0px !important; margin-left: 0px; font-size: var(--ds-md-font-size); line-height: var(--ds-md-line-height);&quot;&gt;&lt;strong&gt;&lt;code style=&quot;font-size: 0.875em; font-weight: var(--ds-font-weight-strong); font-family: var(--ds-font-family-code); background-color: var(--ds-md-inline-code-color,#ececec); border-radius: 4px; padding: 0.15rem 0.3rem;&quot;&gt;fontSize: 30,&lt;/code&gt;&lt;/strong&gt;: Establece el tamaño de la fuente a 30 píxeles.&lt;/p&gt;&lt;/li&gt;&lt;/ul&gt;&lt;/li&gt;&lt;/ul&gt;&lt;/li&gt;&lt;/ul&gt;" id="x2Cqz-jIQy0DlJKaDYQf-7">
          <mxCell style="text;whiteSpace=wrap;html=1;" vertex="1" parent="1">
            <mxGeometry x="1510" y="1230" width="560" height="150" as="geometry" />
          </mxCell>
        </UserObject>
        <mxCell id="x2Cqz-jIQy0DlJKaDYQf-8" value="&lt;strong style=&quot;color: rgb(64, 64, 64); font-family: Inter, system-ui, -apple-system, BlinkMacSystemFont, &amp;quot;Segoe UI&amp;quot;, Roboto, &amp;quot;Noto Sans&amp;quot;, Ubuntu, Cantarell, &amp;quot;Helvetica Neue&amp;quot;, Oxygen, &amp;quot;Open Sans&amp;quot;, sans-serif; font-size: 16.002px; font-style: normal; font-variant-ligatures: normal; font-variant-caps: normal; letter-spacing: normal; orphans: 2; text-align: left; text-indent: 0px; text-transform: none; widows: 2; word-spacing: 0px; -webkit-text-stroke-width: 0px; white-space: normal; text-decoration-thickness: initial; text-decoration-style: initial; text-decoration-color: initial;&quot;&gt;&lt;code style=&quot;font-size: 0.875em; font-weight: var(--ds-font-weight-strong); font-family: var(--ds-font-family-code); background-color: var(--ds-md-inline-code-color,#ececec); border-radius: 4px; padding: 0.15rem 0.3rem;&quot;&gt;SizedBox(height: 30),&lt;/code&gt;&lt;/strong&gt;&lt;span style=&quot;color: rgb(64, 64, 64); font-family: Inter, system-ui, -apple-system, BlinkMacSystemFont, &amp;quot;Segoe UI&amp;quot;, Roboto, &amp;quot;Noto Sans&amp;quot;, Ubuntu, Cantarell, &amp;quot;Helvetica Neue&amp;quot;, Oxygen, &amp;quot;Open Sans&amp;quot;, sans-serif; font-size: 16.002px; font-style: normal; font-variant-ligatures: normal; font-variant-caps: normal; font-weight: 400; letter-spacing: normal; orphans: 2; text-align: left; text-indent: 0px; text-transform: none; widows: 2; word-spacing: 0px; -webkit-text-stroke-width: 0px; white-space: normal; text-decoration-thickness: initial; text-decoration-style: initial; text-decoration-color: initial; display: inline !important; float: none;&quot;&gt;:&lt;span&gt;&amp;nbsp;&lt;/span&gt;&lt;/span&gt;&lt;code style=&quot;font-size: 0.875em; font-weight: var(--ds-font-weight-strong); font-family: var(--ds-font-family-code); background-color: var(--ds-md-inline-code-color,#ececec); border-radius: 4px; padding: 0.15rem 0.3rem; color: rgb(64, 64, 64); font-style: normal; font-variant-ligatures: normal; font-variant-caps: normal; letter-spacing: normal; orphans: 2; text-align: left; text-indent: 0px; text-transform: none; widows: 2; word-spacing: 0px; -webkit-text-stroke-width: 0px; white-space: normal; text-decoration-thickness: initial; text-decoration-style: initial; text-decoration-color: initial;&quot;&gt;SizedBox&lt;/code&gt;&lt;span style=&quot;color: rgb(64, 64, 64); font-family: Inter, system-ui, -apple-system, BlinkMacSystemFont, &amp;quot;Segoe UI&amp;quot;, Roboto, &amp;quot;Noto Sans&amp;quot;, Ubuntu, Cantarell, &amp;quot;Helvetica Neue&amp;quot;, Oxygen, &amp;quot;Open Sans&amp;quot;, sans-serif; font-size: 16.002px; font-style: normal; font-variant-ligatures: normal; font-variant-caps: normal; font-weight: 400; letter-spacing: normal; orphans: 2; text-align: left; text-indent: 0px; text-transform: none; widows: 2; word-spacing: 0px; -webkit-text-stroke-width: 0px; white-space: normal; text-decoration-thickness: initial; text-decoration-style: initial; text-decoration-color: initial; display: inline !important; float: none;&quot;&gt;&lt;span&gt;&amp;nbsp;&lt;/span&gt;es un widget que se utiliza para crear un espacio de tamaño fijo. En este caso, se utiliza para agregar un espacio vertical de 30 píxeles entre el texto y el siguiente widget&lt;/span&gt;" style="text;whiteSpace=wrap;html=1;" vertex="1" parent="1">
          <mxGeometry x="1700" y="1470" width="560" height="80" as="geometry" />
        </mxCell>
        <mxCell id="x2Cqz-jIQy0DlJKaDYQf-9" value="&lt;h3 style=&quot;font-weight: var(--ds-font-weight-strong); font-size: calc(var(--ds-md-zoom)*16px); line-height: 1.5; margin: calc(var(--ds-md-zoom)*16px)0 calc(var(--ds-md-zoom)*12px)0; color: rgb(64, 64, 64); font-family: Inter, system-ui, -apple-system, BlinkMacSystemFont, &amp;quot;Segoe UI&amp;quot;, Roboto, &amp;quot;Noto Sans&amp;quot;, Ubuntu, Cantarell, &amp;quot;Helvetica Neue&amp;quot;, Oxygen, &amp;quot;Open Sans&amp;quot;, sans-serif; text-align: start;&quot;&gt;9. Widget&amp;nbsp;&lt;code style=&quot;font-size: 0.875em; font-weight: var(--ds-font-weight-strong); font-family: var(--ds-font-family-code); background-color: var(--ds-md-inline-code-color,#ececec); border-radius: 4px; padding: 0.15rem 0.3rem;&quot;&gt;SizedBox&lt;/code&gt;&lt;/h3&gt;" style="rounded=1;whiteSpace=wrap;html=1;" vertex="1" parent="1">
          <mxGeometry x="1560" y="1480" width="120" height="60" as="geometry" />
        </mxCell>
        <mxCell id="x2Cqz-jIQy0DlJKaDYQf-10" value="&lt;h3 style=&quot;font-weight: var(--ds-font-weight-strong); font-size: calc(var(--ds-md-zoom)*16px); line-height: 1.5; margin: calc(var(--ds-md-zoom)*16px)0 calc(var(--ds-md-zoom)*12px)0; color: rgb(64, 64, 64); font-family: Inter, system-ui, -apple-system, BlinkMacSystemFont, &amp;quot;Segoe UI&amp;quot;, Roboto, &amp;quot;Noto Sans&amp;quot;, Ubuntu, Cantarell, &amp;quot;Helvetica Neue&amp;quot;, Oxygen, &amp;quot;Open Sans&amp;quot;, sans-serif; text-align: start;&quot;&gt;10. Widget&amp;nbsp;&lt;code style=&quot;font-size: 0.875em; font-weight: var(--ds-font-weight-strong); font-family: var(--ds-font-family-code); background-color: var(--ds-md-inline-code-color,#ececec); border-radius: 4px; padding: 0.15rem 0.3rem;&quot;&gt;LoginForm&lt;/code&gt;&lt;/h3&gt;" style="rounded=1;whiteSpace=wrap;html=1;" vertex="1" parent="1">
          <mxGeometry x="1710" y="1660" width="120" height="60" as="geometry" />
        </mxCell>
        <mxCell id="x2Cqz-jIQy0DlJKaDYQf-11" value="&lt;ul style=&quot;margin: calc(var(--ds-md-zoom)*12px)0; padding-left: calc(var(--ds-md-zoom)*24px); color: rgb(64, 64, 64); font-family: Inter, system-ui, -apple-system, BlinkMacSystemFont, &amp;quot;Segoe UI&amp;quot;, Roboto, &amp;quot;Noto Sans&amp;quot;, Ubuntu, Cantarell, &amp;quot;Helvetica Neue&amp;quot;, Oxygen, &amp;quot;Open Sans&amp;quot;, sans-serif; font-size: 16.002px; font-style: normal; font-variant-ligatures: normal; font-variant-caps: normal; font-weight: 400; letter-spacing: normal; orphans: 2; text-align: start; text-indent: 0px; text-transform: none; widows: 2; word-spacing: 0px; -webkit-text-stroke-width: 0px; white-space: normal; text-decoration-thickness: initial; text-decoration-style: initial; text-decoration-color: initial;&quot;&gt;&lt;li&gt;&lt;p style=&quot;margin-top: 0px; margin-right: 0px; margin-bottom: 0px !important; margin-left: 0px; font-size: var(--ds-md-font-size); line-height: var(--ds-md-line-height);&quot;&gt;&lt;strong&gt;&lt;code style=&quot;font-size: 0.875em; font-weight: var(--ds-font-weight-strong); font-family: var(--ds-font-family-code); background-color: var(--ds-md-inline-code-color,#ececec); border-radius: 4px; padding: 0.15rem 0.3rem;&quot;&gt;LoginForm(),&lt;/code&gt;&lt;/strong&gt;: Aquí se hace referencia a un widget personalizado llamado&lt;span&gt;&amp;nbsp;&lt;/span&gt;&lt;code style=&quot;font-size: 0.875em; font-weight: var(--ds-font-weight-strong); font-family: var(--ds-font-family-code); background-color: var(--ds-md-inline-code-color,#ececec); border-radius: 4px; padding: 0.15rem 0.3rem;&quot;&gt;LoginForm&lt;/code&gt;. Este widget no está definido en el código proporcionado, pero se asume que se creará más adelante para manejar el formulario de inicio de sesión.&lt;/p&gt;&lt;/li&gt;&lt;/ul&gt;" style="text;whiteSpace=wrap;html=1;" vertex="1" parent="1">
          <mxGeometry x="1860" y="1654" width="560" height="100" as="geometry" />
        </mxCell>
      </root>
    </mxGraphModel>
  </diagram>
</mxfile>
